PathFileType	4	(X/Y/Z)	RBDS015\RBDS015runT45.trc
DataRate	CameraRate	NumFrames	NumMarkers	Units	OrigDataRate	OrigDataStartFrame	OrigNumFrames
150.000000	150.000000	4	33	mm	150.000000	562	4500
Frame#	Time	L.ASIS			L.Heel.Bottom			L.Heel.Lateral			L.Heel.Top			L.Iliac.Crest			L.MT1			L.MT5			L.PSIS			L.Shank.Bottom.Lateral			L.Shank.Bottom.Medial			L.Shank.Top.Lateral			L.Shank.Top.Medial			L.Thigh.Bottom.Lateral			L.Thigh.Bottom.Medial			L.Thigh.Top.Lateral			L.Thigh.Top.Medial			R.ASIS			R.ASY			R.Heel.Bottom			R.Heel.Lateral			R.Heel.Top			R.Iliac.Crest			R.MT1			R.MT5			R.PSIS			R.Shank.Bottom.Lateral			R.Shank.Bottom.Medial			R.Shank.Top.Lateral			R.Shank.Top.Medial			R.Thigh.Bottom.Lateral			R.Thigh.Bottom.Medial			R.Thigh.Top.Lateral			R.Thigh.Top.Medial			
		X1	Y1	Z1	X2	Y2	Z2	X3	Y3	Z3	X4	Y4	Z4	X5	Y5	Z5	X6	Y6	Z6	X7	Y7	Z7	X8	Y8	Z8	X9	Y9	Z9	X10	Y10	Z10	X11	Y11	Z11	X12	Y12	Z12	X13	Y13	Z13	X14	Y14	Z14	X15	Y15	Z15	X16	Y16	Z16	X17	Y17	Z17	X18	Y18	Z18	X19	Y19	Z19	X20	Y20	Z20	X21	Y21	Z21	X22	Y22	Z22	X23	Y23	Z23	X24	Y24	Z24	X25	Y25	Z25	X26	Y26	Z26	X27	Y27	Z27	X28	Y28	Z28	X29	Y29	Z29	X30	Y30	Z30	X31	Y31	Z31	X32	Y32	Z32	X33	Y33	Z33	

563	3.746666666666667	2228.364181206297	1035.065865870356	901.2653630821371	1442.127896872641	383.0620210232519	977.8399426920053	1456.981923593993	368.3226524941113	930.909649495616	1483.909424094753	383.7988113049042	972.3508292806316	2206.080827231102	1145.586935778281	864.1051575545951	1504.027520892258	179.039671183802	978.80029651192	1466.697054998592	219.0495866972412	879.088209240212	2059.765639915143	1123.022929124423	951.5432318485751	1590.145389137124	394.3554225856448	896.8355313212303	1565.445587044288	426.05567938671	928.052836060152	1650.111032322995	447.278370324438	885.1786528215727	1627.609076331946	482.2885193429975	917.8556947895014	1969.937549378397	705.6598346927756	855.0263573976114	1916.747910197189	735.0045943792561	886.2448414583458	2016.443015770805	804.6677072223937	839.4205940727351	1960.982425827563	835.2892663618761	874.9552475691174	2225.154933957793	1040.756309748723	1115.130150079202	2547.237737175168	155.9015596366519	1063.623758116491	2396.290521049625	42.32347592192095	1028.410187398962	2413.397751628576	61.1188269947784	1075.423242547696	2387.338937754778	87.53760751407373	1038.74284608759	2150.125167452724	1147.686204667319	1164.178391501666	2589.887740437633	136.8507927396532	1011.832373945597	2555.436762320437	87.96650515575419	1115.868044928412	2051.096455368119	1121.990049234709	1047.816383918878	2403.046410381015	220.6145253575179	1103.376099633546	2360.640874714284	210.129976593687	1068.776597131988	2371.952580818278	295.0125366843684	1116.962585840873	2331.446697408241	284.1648913721241	1082.270560281269	2238.946912607516	700.0359766725386	1164.351975983427	2193.440943075368	675.8047245053749	1112.576045420843	2177.983617345382	790.8504682996422	1172.857113846804	2132.925333611664	767.5310184897018	1126.157875337383	
564	3.753333333333333	2229.054644755731	1034.865607444225	901.0250011836911	1437.366291588281	400.3265724336716	980.6314572985907	1451.381907731844	385.6556637600489	933.4203749709313	1478.987349085297	399.6634771996346	974.9120264721191	2204.63210631282	1145.554591224583	863.7264736555371	1491.713468287196	194.7899378321224	979.3645811972244	1455.66546317896	237.1686175432855	880.1036518599473	2059.593911411476	1122.225136710798	951.7766725136946	1585.217487595591	405.2228386770468	897.9584713086257	1562.364980580622	438.4463213446119	929.155586129889	1647.778263086543	455.1915441651507	885.6435871867557	1627.29252386611	491.5372331522207	918.3143421812091	1974.128466055554	702.4030450629891	852.8771780032106	1920.581729076988	730.8721651441124	884.2704252812583	2019.345282601452	802.0651378819249	838.0165671764115	1963.47789007474	831.730720860571	873.7188888366439	2224.885773159997	1038.649739047108	1115.409805452163	2553.792722456882	157.6178868342874	1066.476640966282	2405.978862203729	39.36015041991448	1031.30279779177	2422.41243102225	58.95238166287954	1078.294999176924	2395.716479491043	84.41608770121175	1041.317336863659	2149.288960692513	1144.933426086061	1164.508337512254	2597.233979971063	139.4928188181574	1014.915472820333	2563.724156897743	90.1110664629408	1119.016546977789	2051.083102404279	1120.268946619028	1048.014512448167	2407.869120996332	219.0478558219729	1104.988259361552	2365.689688934578	207.1214840466323	1070.312166243923	2374.847166201157	292.9406878189914	1117.900646466293	2334.628897239854	280.6827274731957	1083.132666950919	2236.892179936847	697.0800449052186	1163.021076847049	2191.215987458636	673.5297102630348	1111.118331776329	2176.659421947317	788.4822757366551	1171.769731779304	2131.528050231937	765.6884999753444	1124.846704155245	
565	3.76	2229.601760019425	1034.400976259384	900.568638366518	1434.648797767978	417.2845229807481	983.1655940447027	1447.824802264653	402.5585751593901	935.7251947607207	1476.072117224543	415.1308343111781	977.2161529792835	2202.62009651055	1145.081981127227	863.0515879787555	1480.945444568842	210.3148079683476	980.258713284574	1446.354539991077	254.8398174231988	881.3482503596331	2059.162088356027	1120.480391561116	952.1222044686311	1582.06844476931	415.4745214100276	898.9057365532816	1561.032793964441	450.1704391945402	929.9743983274833	1647.031145581315	462.4183626808996	885.9028763662903	1628.542079071094	500.0351676051814	918.4735989376755	1978.782158250011	698.3878373200232	850.6333476755009	1924.867000495976	725.8207366528035	882.2940513413715	2022.45134163527	798.823176943437	836.6178514341555	1966.187540751716	827.351301044826	872.6394635945016	2224.604269819799	1036.252979104702	1115.646519687378	2556.689347614174	157.3912167764997	1068.941086255624	2410.969650246932	36.5920715218605	1033.22896377271	2426.772378085609	56.76068436558149	1080.234415631127	2399.995631196959	81.52116543537819	1042.854315643689	2148.139703170918	1141.67046072757	1164.850074799789	2600.812702613979	139.5743166566583	1017.79828898795	2567.274224316411	90.40625662612103	1121.798087484619	2050.854230747369	1117.789748781784	1048.227667325147	2409.760387884558	216.7805930691228	1106.069948918772	2367.821565084852	203.931254551074	1071.212994674761	2375.549247985058	290.3492872416801	1118.461165121166	2335.593856107291	277.2141855884296	1083.546764166547	2235.407723017579	694.3687123439148	1161.702928706746	2189.352807898742	671.1853390548557	1110.011991775201	2175.817076946641	786.2329220777725	1170.617528434996	2130.40511819956	763.7129384573881	1123.815257268869	
566	3.766666666666667	2230.010777831164	1033.642994853379	899.8898779265448	1434.073140003287	433.7388916898485	985.3916608938077	1446.391185532956	418.8299586925383	937.7654500292159	1475.267014584222	430.0136807390164	979.2168795279224	2200.104935140363	1144.157441741444	862.1230934859861	1471.956188747435	225.4020362529289	981.4013611903988	1438.904015357708	271.8235565912693	882.757457343259	2058.519399498714	1117.769200245315	952.4960925327118	1580.782154811553	425.0133633234771	899.6405411379401	1561.513017442846	461.0903277576323	930.4909518449041	1647.900336590522	468.9076944825626	885.9331853597525	1631.368382263068	507.6987123922441	918.3281616599536	1983.817233636079	693.7184605906477	848.3578091755497	1929.546044017151	719.9924691933898	880.3683304983447	2025.736163993282	795.006842682888	835.242240051758	1969.103174633665	822.2607168174526	871.7092461419262	2224.293164938203	1033.61678122267	1115.778306424697	2555.983548649031	155.0939528897143	1070.839509704011	2411.142359794579	33.95601059226852	1034.167879733625	2426.428779565839	54.48311144743405	1081.193864835491	2400.102023781986	78.80434644900072	1043.312694452499	2146.750789236829	1137.962393123449	1165.194133914207	2600.628520393812	136.9277409864885	1020.289715851527	2566.153966005792	88.72220036424795	1124.069984669408	2050.39076488361	1114.579156374276	1048.381258418797	2408.776553244612	213.7284178606076	1106.560401161671	2367.053903419745	200.5028270387934	1071.447703641232	2374.146661192396	287.183504671755	1118.611705224631	2334.39099858815	273.7308589756878	1083.50503825174	2234.511073992651	691.8965505905636	1160.417119384394	2187.901934880207	668.7496674012343	1109.24956311309	2175.435250497299	784.0702360858284	1169.405957571247	2129.565191167656	761.5667893425521	1123.040078214267	
